<?xml version="1.0" encoding="UTF-8" standalone="no"?>
<!-- Creator: CorelDRAW X7 -->

<svg
   xml:space="preserve"
   width="146.889mm"
   height="67.7526mm"
   version="1.1"
   style="shape-rendering:geometricPrecision; text-rendering:geometricPrecision; image-rendering:optimizeQuality; fill-rule:evenodd; clip-rule:evenodd"
   viewBox="0 0 14689 6775"
   id="svg17"
   sodipodi:docname="logo_diputacion_Monocromo_002.svg"
   inkscape:version="1.1.2 (0a00cf5339, 2022-02-04)"
   xmlns:inkscape="http://www.inkscape.org/namespaces/inkscape"
   xmlns:sodipodi="http://sodipodi.sourceforge.net/DTD/sodipodi-0.dtd"
   xmlns="http://www.w3.org/2000/svg"
   xmlns:svg="http://www.w3.org/2000/svg"><sodipodi:namedview
   id="namedview19"
   pagecolor="#ffffff"
   bordercolor="#666666"
   borderopacity="1.0"
   inkscape:pageshadow="2"
   inkscape:pageopacity="0.0"
   inkscape:pagecheckerboard="0"
   inkscape:document-units="mm"
   showgrid="false"
   inkscape:zoom="2.4524274"
   inkscape:cx="277.48018"
   inkscape:cy="128.64805"
   inkscape:current-layer="Capa_x0020_1" />
 <defs
   id="defs4">
  <style
   type="text/css"
   id="style2">
   <![CDATA[
    .fil2 {fill:none}
    .fil0 {fill:#2E2E2D}
    .fil1 {fill:#C51B1B}
   ]]>
  </style>
 </defs>
 <g
   id="Capa_x0020_1"
   inkscape:label="Capa 1">
  <metadata
   id="CorelCorpID_0Corel-Layer" />
  <g
   id="_2322289862736">
   <g
   id="g11">
    <path
   class="fil0"
   d="M11966 2557l167 0 397 606 0 -606 175 0 0 922 -168 0 -396 -605 0 605 -175 0 0 -922zm-509 -318l202 0 -229 246 -123 0 150 -246zm-36 467c-85,0 -156,29 -214,89 -58,59 -87,134 -87,226 0,102 36,182 109,242 57,46 122,69 195,69 83,0 154,-30 212,-90 58,-60 88,-134 88,-222 0,-88 -30,-162 -89,-223 -58,-61 -130,-91 -214,-91zm3 -172c130,0 242,47 336,141 94,95 141,210 141,345 0,135 -46,249 -139,342 -93,93 -205,140 -337,140 -139,0 -253,-48 -345,-144 -91,-95 -137,-209 -137,-341 0,-88 21,-169 64,-243 42,-74 101,-132 175,-176 75,-43 156,-64 242,-64zm-705 23l175 0 0 922 -175 0 0 -922zm-38 161l-123 117c-84,-88 -178,-132 -282,-132 -89,0 -163,30 -224,90 -60,61 -90,135 -90,223 0,61 13,116 40,163 27,48 65,85 113,113 49,27 104,40 164,40 51,0 97,-9 139,-28 43,-19 89,-54 140,-104l119 125c-68,66 -132,112 -193,138 -61,26 -130,39 -208,39 -143,0 -261,-46 -352,-137 -91,-90 -137,-207 -137,-349 0,-92 21,-173 63,-245 41,-71 101,-129 178,-172 78,-44 161,-65 251,-65 76,0 149,16 220,48 70,32 131,77 182,136zm-1324 84l-125 317 249 0 -124 -317zm-89 -245l177 0 355 922 -183 0 -72 -190 -378 0 -74 190 -182 0 357 -922zm-809 0l510 0 0 173 -168 0 0 749 -179 0 0 -749 -163 0 0 -173zm-636 0l176 0 0 596c0,52 5,88 14,109 9,21 23,38 44,51 21,13 46,19 75,19 31,0 58,-7 80,-21 23,-14 38,-32 47,-54 8,-22 12,-64 12,-126l0 -574 176 0 0 549c0,93 -5,157 -15,193 -11,36 -31,71 -60,104 -29,34 -63,59 -102,75 -38,16 -83,24 -134,24 -67,0 -125,-16 -174,-46 -50,-31 -85,-69 -107,-116 -21,-46 -32,-124 -32,-234l0 -549zm-436 361l56 0c44,0 75,-4 92,-10 17,-6 31,-17 41,-31 10,-15 15,-32 15,-53 0,-36 -14,-62 -42,-78 -20,-12 -58,-19 -113,-19l-49 0 0 191zm-175 -361l186 0c101,0 174,9 218,27 45,19 80,49 106,91 25,41 38,91 38,149 0,65 -17,118 -51,161 -33,43 -79,72 -137,89 -34,10 -96,14 -185,14l0 391 -175 0 0 -922zm-268 0l174 0 0 922 -174 0 0 -922zm-608 169l0 582 81 0c80,0 138,-9 174,-28 37,-18 66,-49 89,-93 23,-43 35,-97 35,-160 0,-98 -28,-174 -82,-228 -50,-49 -129,-73 -238,-73l-59 0zm-175 -169l208 0c134,0 233,16 299,50 65,33 118,87 161,162 42,74 63,162 63,262 0,71 -12,136 -36,195 -23,60 -56,109 -97,149 -42,39 -87,66 -135,81 -49,15 -132,23 -252,23l-211 0 0 -922zm5984 1034l566 0 -334 762 312 0 0 172 -571 0 331 -759 -304 0 0 -175zm-502 151c-86,0 -158,30 -217,90 -58,60 -88,136 -88,229 0,103 37,185 111,245 58,47 123,71 198,71 84,0 155,-31 214,-92 59,-61 89,-136 89,-225 0,-89 -30,-164 -90,-226 -59,-62 -131,-92 -217,-92zm3 -175c132,0 246,48 341,144 95,96 142,212 142,350 0,136 -46,251 -140,346 -94,94 -208,141 -342,141 -140,0 -256,-48 -349,-145 -93,-97 -139,-212 -139,-346 0,-89 21,-171 65,-246 43,-75 102,-134 178,-178 75,-44 157,-66 244,-66zm-729 24l178 0 0 620c0,98 -8,167 -24,207 -15,40 -41,72 -77,95 -36,24 -79,35 -129,35 -102,0 -190,-45 -262,-135l128 -120c28,32 52,54 72,65 20,11 39,16 57,16 19,0 33,-8 43,-24 9,-16 14,-51 14,-106l0 -653zm-715 248l-127 322 253 0 -126 -322zm-90 -248l179 0 360 934 -185 0 -73 -193 -383 0 -75 193 -185 0 362 -934zm-914 172l0 589 82 0c81,0 140,-9 177,-28 36,-19 66,-50 89,-94 24,-44 35,-98 35,-163 0,-99 -27,-176 -83,-231 -50,-49 -130,-73 -240,-73l-60 0zm-177 -172l210 0c136,0 237,17 303,50 66,34 120,89 163,164 43,76 64,165 64,266 0,72 -12,138 -36,198 -24,61 -57,111 -99,151 -42,39 -88,67 -137,82 -49,15 -134,23 -255,23l-213 0 0 -934zm-485 248l-126 322 252 0 -126 -322zm-90 -248l180 0 359 934 -185 0 -73 -193 -383 0 -74 193 -185 0 361 -934zm-760 525l0 240 45 0c75,0 125,-9 151,-28 26,-19 39,-46 39,-81 0,-41 -15,-72 -46,-96 -30,-23 -81,-35 -152,-35l-37 0zm0 -356l0 198 39 0c45,0 78,-9 99,-28 22,-18 32,-43 32,-74 0,-30 -10,-53 -30,-70 -21,-17 -52,-26 -93,-26l-47 0zm-177 765l0 -934 147 0c86,0 148,5 188,16 56,15 101,43 134,83 33,40 50,88 50,142 0,36 -8,68 -23,97 -15,29 -39,57 -73,82 57,27 98,60 124,100 27,40 40,87 40,142 0,52 -14,100 -41,143 -28,43 -63,76 -106,97 -43,21 -102,32 -177,32l-263 0zm-784 -686l375 0 0 128 -245 0 0 123 245 0 0 126 -245 0 0 181 245 0 0 128 -375 0 0 -686zm-463 126l0 433 61 0c60,0 103,-7 130,-21 27,-13 49,-37 66,-69 17,-32 25,-72 25,-120 0,-72 -20,-129 -61,-169 -36,-36 -95,-54 -176,-54l-45 0zm-130 -126l155 0c100,0 174,12 223,37 48,24 88,65 119,120 32,56 47,121 47,195 0,53 -8,102 -26,146 -17,44 -42,81 -73,111 -31,29 -64,49 -100,60 -36,11 -99,17 -187,17l-158 0 0 -686z"
   id="path7"
   style="fill:#c51b1b;fill-opacity:1" />
    <path
   class="fil1"
   d="M2047 3842c978,-712 2292,-860 3393,-340 257,121 -45,520 -259,403 -749,-409 -2127,-453 -3082,13 -95,47 -152,-2 -52,-76zm329 411c774,-498 1836,-585 2683,-161 182,91 -42,387 -219,299 -692,-344 -1722,-396 -2442,-72 -95,42 -124,0 -22,-66zm290 451c581,-400 1407,-481 2057,-159 182,90 -14,296 -144,230 -535,-269 -1350,-301 -1895,-33 -45,22 -70,-2 -18,-38zm2339 -1606c-171,0 -309,-138 -309,-308 0,-170 138,-308 309,-308 170,0 308,138 308,308 0,170 -138,308 -308,308zm-2477 -1c171,0 309,-138 309,-308 0,-170 -138,-308 -309,-308 -170,0 -308,138 -308,308 0,170 138,308 308,308l0 0zm1238 -250c234,0 424,-190 424,-424 0,-233 -190,-423 -424,-423 -233,0 -423,190 -423,423 0,234 190,424 423,424l0 0z"
   id="path9" />
   </g>
   <rect
   class="fil2"
   width="14689"
   height="6775"
   id="rect13" />
  </g>
 </g>
</svg>
